<svg width="48" height="48" viewBox="0 0 48 48" fill="none" xmlns="http://www.w3.org/2000/svg">
<path d="M39.1291 8.30027C39.3925 8.03688 39.6143 7.94677 39.7946 8.02994C39.9748 8.11312 40.0649 8.33493 40.0649 8.69536V39.3046C40.0649 39.6651 39.9748 39.8869 39.7946 39.9701C39.6143 40.0532 39.3925 39.9631 39.1291 39.6997L24.3651 24.9357C24.2542 24.811 24.1641 24.6793 24.0948 24.5407V39.3046C24.0948 39.6651 24.0047 39.8869 23.8245 39.9701C23.6443 40.0532 23.4225 39.9631 23.1591 39.6997L8.39509 24.9357C8.1317 24.6723 8 24.3604 8 24C8 23.6396 8.1317 23.3276 8.39509 23.0643L23.1591 8.30027C23.4225 8.03688 23.6443 7.94677 23.8245 8.02994C24.0047 8.11312 24.0948 8.33493 24.0948 8.69536V23.4593C24.1641 23.3069 24.2542 23.1752 24.3651 23.0643L39.1291 8.30027Z" fill="white"/>
</svg>
