<svg width="48" height="48" viewBox="0 0 48 48" fill="none" xmlns="http://www.w3.org/2000/svg">
<path d="M8.93574 39.6997C8.67235 39.9631 8.45054 40.0532 8.27033 39.9701C8.09011 39.8869 8 39.6651 8 39.3046V8.69536C8 8.33493 8.09011 8.11312 8.27033 8.02994C8.45054 7.94677 8.67235 8.03688 8.93574 8.30027L23.6997 23.0643C23.8106 23.1752 23.9007 23.3069 23.97 23.4593V8.69536C23.97 8.33493 24.0601 8.11312 24.2404 8.02994C24.4206 7.94677 24.6424 8.03688 24.9058 8.30027L39.6697 23.0643C39.9331 23.3276 40.0648 23.6396 40.0648 24C40.0648 24.3604 39.9331 24.6723 39.6697 24.9357L24.9058 39.6997C24.6424 39.9631 24.4206 40.0532 24.2404 39.9701C24.0601 39.8869 23.97 39.6651 23.97 39.3046V24.5407C23.9007 24.6793 23.8106 24.811 23.6997 24.9357L8.93574 39.6997Z" fill="white"/>
</svg>
