<svg width="48" height="48" viewBox="0 0 48 48" fill="none" xmlns="http://www.w3.org/2000/svg">
<path d="M24 42C19.4 42 15.3917 40.475 11.975 37.425C8.55833 34.375 6.6 30.5667 6.1 26H10.2C10.6667 29.4667 12.2083 32.3333 14.825 34.6C17.4417 36.8667 20.5 38 24 38C27.9 38 31.2083 36.6417 33.925 33.925C36.6417 31.2083 38 27.9 38 24C38 20.1 36.6417 16.7917 33.925 14.075C31.2083 11.3583 27.9 10 24 10C21.7 10 19.55 10.5333 17.55 11.6C15.55 12.6667 13.8667 14.1333 12.5 16H18V20H6V8H10V12.7C11.7 10.5667 13.775 8.91667 16.225 7.75C18.675 6.58333 21.2667 6 24 6C26.5 6 28.8417 6.475 31.025 7.425C33.2083 8.375 35.1083 9.65833 36.725 11.275C38.3417 12.8917 39.625 14.7917 40.575 16.975C41.525 19.1583 42 21.5 42 24C42 26.5 41.525 28.8417 40.575 31.025C39.625 33.2083 38.3417 35.1083 36.725 36.725C35.1083 38.3417 33.2083 39.625 31.025 40.575C28.8417 41.525 26.5 42 24 42ZM29.6 32.4L22 24.8V14H26V23.2L32.4 29.6L29.6 32.4Z" fill="white"/>
</svg>
