<svg width="48" height="48" viewBox="0 0 48 48" fill="none" xmlns="http://www.w3.org/2000/svg">
<path d="M21.25 38.9516V8.03984C21.25 7.46406 20.7859 7 20.2016 7H14.0484C13.4641 7 13 7.46406 13 8.03984V38.9516C13 39.5273 13.4641 40 14.0484 40H20.2016C20.7859 40 21.25 39.5359 21.25 38.9516Z" fill="white"/>
<path d="M33.9517 7H27.7986C27.2228 7 26.7501 7.46406 26.7501 8.03984V38.9516C26.7501 39.5273 27.2142 40 27.7986 40H33.9517C34.5275 40 35.0001 39.5359 35.0001 38.9516V8.03984C35.0001 7.46406 34.5361 7 33.9517 7Z" fill="white"/>
</svg>
